<svg xmlns="http://www.w3.org/2000/svg" xmlns:xlink="http://www.w3.org/1999/xlink" width="1024" zoomAndPan="magnify" viewBox="0 0 768 767.999994" height="1024" preserveAspectRatio="xMidYMid meet" version="1.0"><defs><g/><clipPath id="47c1b66c4d"><path d="M 159 321 L 516 321 L 516 692 L 159 692 Z M 159 321 " clip-rule="nonzero"/></clipPath><clipPath id="a8f537137b"><path d="M 300.992188 691.199219 L 159.675781 444.566406 L 373.769531 321.890625 L 515.085938 568.523438 Z M 300.992188 691.199219 " clip-rule="nonzero"/></clipPath><clipPath id="3b36657087"><path d="M 303.183594 884.136719 L -2.195312 351.175781 L 293.894531 181.519531 L 599.273438 714.480469 Z M 303.183594 884.136719 " clip-rule="nonzero"/></clipPath><clipPath id="3144230be2"><path d="M 179 426 L 453 426 L 453 514 L 179 514 Z M 179 426 " clip-rule="nonzero"/></clipPath><clipPath id="3810e619ee"><path d="M 300.992188 691.199219 L 159.675781 444.566406 L 373.769531 321.890625 L 515.085938 568.523438 Z M 300.992188 691.199219 " clip-rule="nonzero"/></clipPath><clipPath id="729cc7bc65"><path d="M 303.183594 884.136719 L -2.195312 351.175781 L 293.894531 181.519531 L 599.273438 714.480469 Z M 303.183594 884.136719 " clip-rule="nonzero"/></clipPath><clipPath id="d59d64de6c"><path d="M 257.46875 607.945312 L 177.503906 468.382812 L 388.574219 347.441406 L 468.542969 487.003906 Z M 257.46875 607.945312 " clip-rule="nonzero"/></clipPath><clipPath id="ea0ec1d6a8"><path d="M 49.136719 155.195312 L 718.886719 155.195312 L 718.886719 488.195312 L 49.136719 488.195312 Z M 49.136719 155.195312 " clip-rule="nonzero"/></clipPath><clipPath id="685ef71f03"><rect x="0" width="92" y="0" height="174"/></clipPath><clipPath id="5b71b34fdd"><rect x="0" width="100" y="0" height="145"/></clipPath></defs><g clip-path="url(#47c1b66c4d)"><g clip-path="url(#a8f537137b)"><g clip-path="url(#3b36657087)"><path fill="#ffffff" d="M 172.601562 278.683594 C 165.214844 288.402344 158.382812 298.59375 152.191406 309.160156 L 152.1875 309.160156 C 148.75 315.019531 145.503906 321 142.460938 327.070312 C 142.109375 327.78125 141.753906 328.496094 141.402344 329.207031 C 132.753906 346.828125 125.757812 365.382812 120.609375 384.34375 C 115.457031 403.316406 112.113281 422.863281 110.667969 442.433594 C 110.265625 447.851562 110.007812 453.289062 109.894531 458.726562 C 109.757812 465.519531 109.84375 472.320312 110.15625 479.101562 C 110.5 486.691406 111.125 494.269531 112.035156 501.796875 C 116.558594 539.277344 127.847656 575.167969 145.613281 608.628906 C 147.199219 611.621094 148.84375 614.597656 150.535156 617.550781 C 152.226562 620.503906 153.960938 623.429688 155.742188 626.308594 C 175.628906 658.558594 200.882812 686.445312 230.933594 709.300781 C 236.964844 713.890625 243.183594 718.261719 249.5625 722.398438 C 255.253906 726.097656 261.078125 729.609375 267.007812 732.925781 C 271.757812 735.578125 276.574219 738.105469 281.453125 740.496094 C 299.070312 749.148438 317.625 756.144531 336.59375 761.296875 C 355.558594 766.445312 375.105469 769.789062 394.679688 771.238281 C 395.472656 771.292969 396.269531 771.347656 397.0625 771.40625 L 397.09375 771.402344 C 403.859375 771.855469 410.644531 772.074219 417.425781 772.070312 L 417.433594 772.070312 C 429.679688 772.070312 441.929688 771.332031 454.042969 769.871094 C 494.875 764.941406 533.820312 751.984375 569.796875 731.371094 L 539.566406 678.609375 L 521.886719 688.738281 L 540.070312 720.472656 C 500.777344 739.410156 458.90625 748.464844 417.507812 748.457031 L 417.613281 716.3125 L 397.238281 716.242188 L 397.136719 747.726562 C 355.710938 744.738281 315.257812 732.71875 278.886719 712.503906 L 293.148438 687.984375 L 275.535156 677.742188 L 261.445312 701.972656 C 227.886719 680.023438 198.542969 650.660156 176.15625 614.613281 L 199.523438 601.222656 L 189.394531 583.546875 L 166.027344 596.933594 C 146.25 559.394531 135.753906 519.226562 133.789062 479.179688 L 161.816406 479.273438 L 161.882812 458.898438 L 133.523438 458.804688 C 134.472656 417.203125 144.558594 376.226562 162.933594 338.980469 L 190.140625 354.808594 L 200.386719 337.195312 L 172.597656 321.03125 C 193.527344 285.308594 222.511719 253.765625 258.71875 229.445312 L 276.902344 261.179688 L 294.578125 251.050781 L 264.347656 198.289062 C 228.371094 218.902344 197.5 245.953125 172.601562 278.683594 " fill-opacity="1" fill-rule="nonzero"/></g></g></g><g clip-path="url(#3144230be2)"><g clip-path="url(#3810e619ee)"><g clip-path="url(#729cc7bc65)"><g clip-path="url(#d59d64de6c)"><path fill="#ffffff" d="M 182.277344 472.042969 L 370.65625 492.429688 C 382.890625 512.847656 409.273438 519.796875 430.019531 507.914062 C 451.015625 495.882812 458.289062 469.105469 446.257812 448.109375 C 434.226562 427.109375 407.449219 419.84375 386.449219 431.875 C 379.792969 435.691406 374.515625 440.988281 370.796875 447.113281 L 182.296875 466.265625 C 178.824219 466.617188 178.808594 471.664062 182.277344 472.042969 " fill-opacity="1" fill-rule="nonzero"/></g></g></g></g><g clip-path="url(#ea0ec1d6a8)"><path fill="#ffffff" d="M 115.84375 476.515625 C 115.84375 334.695312 236.136719 219.316406 383.996094 219.316406 C 531.855469 219.316406 652.148438 334.695312 652.148438 476.515625 C 652.148438 480.441406 652.027344 484.335938 651.839844 488.222656 L 718.613281 488.222656 C 718.757812 484.335938 718.851562 480.441406 718.851562 476.515625 C 718.851562 299.429688 568.636719 155.347656 383.996094 155.347656 C 199.355469 155.347656 49.136719 299.429688 49.136719 476.515625 C 49.136719 480.441406 49.230469 484.335938 49.378906 488.222656 L 116.148438 488.222656 C 115.960938 484.351562 115.84375 480.453125 115.84375 476.515625 Z M 115.84375 476.515625 " fill-opacity="1" fill-rule="nonzero"/></g><g transform="matrix(1, 0, 0, 1, 33, 464)"><g clip-path="url(#685ef71f03)"><g fill="#ffffff" fill-opacity="1"><g transform="translate(1.891932, 134.45927)"><g><path d="M 86.921875 0 L 68.09375 0 L 61.28125 -20.875 L 26.578125 -20.875 L 19.765625 0 L 1.359375 0 L 32.65625 -90.578125 L 55.640625 -90.578125 Z M 43.0625 -71.6875 L 31.40625 -35.9375 L 56.3125 -35.9375 L 44.609375 -71.6875 Z M 43.0625 -71.6875 "/></g></g></g></g></g><g transform="matrix(1, 0, 0, 1, 632, 465)"><g clip-path="url(#5b71b34fdd)"><g fill="#ffffff" fill-opacity="1"><g transform="translate(1.088159, 112.298027)"><g><path d="M 23.53125 0 L 9.828125 0 L 9.828125 -75.59375 L 29.375 -75.59375 L 48.5 -20.015625 L 49.578125 -20.015625 L 68.609375 -75.59375 L 87.6875 -75.59375 L 87.6875 0 L 73.53125 0 L 73.53125 -49.953125 L 72.234375 -50.15625 L 54.75 0 L 42.296875 0 L 24.8125 -50.15625 L 23.53125 -49.953125 Z M 23.53125 0 "/></g></g></g></g></g></svg>