<svg width="481" height="119" viewBox="0 0 481 119" fill="none" xmlns="http://www.w3.org/2000/svg">
<g clip-path="url(#clip0_44_1856)">
<path d="M9.15767 -0.0217905C9.33081 -0.0220905 9.50395 -0.0223905 9.68233 -0.0226997C10.2654 -0.0235025 10.8484 -0.0230994 11.4315 -0.0227066C11.8543 -0.0230367 12.2772 -0.0234405 12.7001 -0.0239115C13.6239 -0.0247685 14.5478 -0.0250976 15.4716 -0.0249678C16.8546 -0.0247759 18.2377 -0.0255503 19.6207 -0.0265112C21.9778 -0.0281192 24.3349 -0.0289148 26.6919 -0.0292681C29.0812 -0.0296278 31.4705 -0.0303477 33.8598 -0.0315065C34.0106 -0.0315793 34.1614 -0.0316521 34.3168 -0.0317271C34.931 -0.0320243 35.5452 -0.0323235 36.1595 -0.0326252C43.6073 -0.0362767 51.055 -0.0381153 58.5028 -0.0396361C60.918 -0.040132 63.3331 -0.0407016 65.7483 -0.0413209C66.0038 -0.0413864 66.0038 -0.0413864 66.2646 -0.0414532C66.9538 -0.04163 67.6431 -0.0418073 68.3324 -0.0419849C80.1229 -0.0450217 91.9134 -0.0476213 103.704 -0.0488746C104.63 -0.0489733 105.556 -0.0490743 106.482 -0.0491751C106.666 -0.049195 106.85 -0.049215 107.039 -0.0492356C108.901 -0.049438 110.762 -0.0496423 112.623 -0.0498496C112.997 -0.0498911 113.37 -0.0499323 113.743 -0.0499733C125.729 -0.0512899 137.714 -0.0550732 149.7 -0.0605677C158.311 -0.0645142 166.923 -0.068157 175.534 -0.0693586C175.8 -0.0693958 175.8 -0.0693958 176.071 -0.0694339C179.959 -0.0699722 183.847 -0.0703189 187.736 -0.0704865C189.3 -0.0705566 190.865 -0.0706504 192.429 -0.0707506C192.6 -0.0707608 192.772 -0.0707711 192.948 -0.0707816C198.463 -0.0711223 203.977 -0.0735287 209.492 -0.0769955C215.047 -0.0804756 220.602 -0.0818082 226.157 -0.080194C226.925 -0.0799712 227.693 -0.079772 228.461 -0.0795871C228.612 -0.0795499 228.763 -0.0795128 228.918 -0.0794745C231.299 -0.0789485 233.681 -0.0806917 236.063 -0.0833862C238.406 -0.08599 240.749 -0.0861728 243.093 -0.0838006C244.466 -0.082483 245.838 -0.0829995 247.211 -0.0862748C248.232 -0.0885023 249.253 -0.0871763 250.274 -0.0845021C250.683 -0.0839716 251.092 -0.0845632 251.502 -0.0864446C256.639 -0.108518 262.2 0.962597 266.156 4.53221C266.341 4.7192 266.524 4.90902 266.702 5.10257C266.997 5.40836 267.303 5.68394 267.625 5.96041C268.318 6.5628 268.989 7.18635 269.656 7.81781C270.624 8.73099 271.598 9.63705 272.58 10.5356C273.387 11.2743 274.189 12.0179 274.992 12.7608C275.263 13.0112 275.534 13.2614 275.805 13.5115C276.89 14.5135 277.971 15.5199 279.05 16.5296C279.728 17.1637 280.408 17.7953 281.09 18.4247C283.093 20.2736 285.079 22.1413 287.065 24.0088C287.435 24.3557 287.804 24.7022 288.174 25.0487C288.779 25.6169 289.383 26.1868 289.985 26.7585C290.239 26.9985 290.493 27.2377 290.747 27.4766C294.204 30.8114 297.007 35.8727 297.223 40.7519C297.229 41.1521 297.23 41.5519 297.229 41.9521C297.229 42.1812 297.229 42.1812 297.23 42.4149C297.23 42.9248 297.23 43.4346 297.229 43.9445C297.23 44.3107 297.23 44.677 297.23 45.0433C297.231 46.0365 297.231 47.0296 297.23 48.0228C297.23 49.0613 297.23 50.0999 297.23 51.1385C297.231 52.8814 297.23 54.6244 297.23 56.3673C297.229 58.3852 297.229 60.403 297.23 62.4208C297.231 64.1519 297.231 65.8831 297.23 67.6142C297.23 68.6488 297.23 69.6834 297.231 70.7179C297.231 71.6894 297.231 72.6609 297.23 73.6324C297.23 73.9899 297.23 74.3474 297.23 74.705C297.23 75.1908 297.23 75.6766 297.229 76.1625C297.23 76.3776 297.23 76.3776 297.23 76.597C297.227 77.5673 297.227 77.5673 297.039 77.7557C296.663 77.7724 296.287 77.777 295.911 77.7771C295.732 77.7775 295.732 77.7775 295.55 77.7779C295.147 77.7786 294.745 77.7781 294.342 77.7775C294.055 77.7778 293.767 77.7781 293.48 77.7784C292.697 77.7792 291.914 77.7789 291.131 77.7784C290.314 77.7779 289.497 77.7783 288.679 77.7786C287.307 77.7789 285.934 77.7785 284.561 77.7777C282.971 77.7768 281.382 77.7771 279.792 77.778C278.43 77.7788 277.068 77.7789 275.705 77.7784C274.891 77.7782 274.076 77.7781 273.261 77.7787C272.495 77.7792 271.73 77.7788 270.964 77.7779C270.682 77.7776 270.4 77.7777 270.118 77.7781C269.735 77.7785 269.352 77.778 268.969 77.7771C268.646 77.777 268.647 77.777 268.318 77.7769C267.841 77.7557 267.841 77.7557 267.673 77.5866C267.656 77.3055 267.652 77.0238 267.652 76.7422C267.651 76.5581 267.651 76.3741 267.651 76.1845C267.651 75.9798 267.652 75.7751 267.652 75.5641C267.652 75.3486 267.652 75.1331 267.652 74.9111C267.651 74.3102 267.652 73.7092 267.653 73.1083C267.654 72.4613 267.653 71.8143 267.653 71.1674C267.653 70.0455 267.654 68.9236 267.655 67.8018C267.656 66.1797 267.656 64.5577 267.657 62.9356C267.657 60.3043 267.658 57.6729 267.66 55.0415C267.661 52.4847 267.663 49.9279 267.663 47.3711C267.663 47.2136 267.663 47.0561 267.663 46.8939C267.664 46.1038 267.664 45.3138 267.664 44.5238C267.666 37.9652 267.669 31.4066 267.673 24.848C260.265 24.848 252.858 24.848 245.226 24.848C245.226 48.2203 245.226 71.5927 245.226 95.6733C262.38 95.6733 279.534 95.6733 297.208 95.6733C297.208 114.62 297.208 114.62 295.382 116.633C293.328 118.562 290.601 119.028 287.882 119.022C287.709 119.022 287.536 119.022 287.357 119.022C286.775 119.023 286.192 119.023 285.609 119.022C285.186 119.022 284.763 119.023 284.341 119.023C283.417 119.024 282.494 119.024 281.57 119.024C280.187 119.024 278.805 119.024 277.422 119.025C275.066 119.026 272.71 119.027 270.353 119.027C267.965 119.027 265.576 119.027 263.188 119.028C263.037 119.028 262.886 119.028 262.731 119.029C262.117 119.029 261.503 119.029 260.889 119.029C253.617 119.032 246.345 119.033 239.073 119.034C235.453 119.034 231.832 119.035 228.211 119.036C216.599 119.038 204.987 119.04 193.375 119.04C192.82 119.04 192.265 119.04 191.709 119.04C190.596 119.04 189.483 119.04 188.37 119.04C187.066 119.04 185.763 119.04 184.46 119.041C184.087 119.041 183.714 119.041 183.341 119.041C171.36 119.041 159.379 119.044 147.398 119.048C138.79 119.051 130.182 119.053 121.574 119.054C121.397 119.054 121.22 119.054 121.037 119.054C117.151 119.054 113.265 119.054 109.379 119.055C107.988 119.055 106.598 119.055 105.207 119.055C104.861 119.055 104.515 119.055 104.169 119.055C98.6567 119.055 93.1441 119.057 87.6314 119.059C82.0787 119.061 76.5261 119.062 70.9734 119.061C70.206 119.061 69.4386 119.061 68.6711 119.06C68.4455 119.06 68.4455 119.06 68.2152 119.06C65.834 119.06 63.4527 119.061 61.0715 119.063C58.7295 119.065 56.3875 119.065 54.0455 119.063C52.6728 119.062 51.3002 119.062 49.9275 119.065C48.9076 119.067 47.8878 119.066 46.8679 119.063C46.4585 119.063 46.049 119.064 45.6396 119.065C42.7834 119.074 40.1079 118.908 37.3832 117.965C37.2359 117.914 37.0885 117.864 36.9367 117.812C34.7644 117.04 32.7701 115.991 31.0543 114.436C30.8976 114.295 30.741 114.155 30.5796 114.01C30.1479 113.618 29.7208 113.222 29.2949 112.825C28.9367 112.491 28.5768 112.159 28.217 111.826C27.941 111.572 27.6651 111.316 27.3894 111.061C26.8391 110.552 26.2885 110.043 25.738 109.534C25.5551 109.365 25.3723 109.196 25.1894 109.027C25.0537 108.901 25.0537 108.901 24.9152 108.773C24.6409 108.52 24.3667 108.266 24.0924 108.013C24.0019 107.929 23.9115 107.845 23.8183 107.759C23.6351 107.59 23.452 107.421 23.2689 107.251C22.8162 106.833 22.3634 106.414 21.9103 105.996C20.8244 104.994 19.7429 103.987 18.6641 102.977C17.9864 102.343 17.3063 101.712 16.6243 101.082C16.3555 100.834 16.0867 100.585 15.818 100.337C15.612 100.146 15.4059 99.9565 15.1996 99.7666C14.8582 99.4522 14.5176 99.1369 14.1771 98.8215C14.0193 98.6767 14.0193 98.6767 13.8583 98.529C13.708 98.3895 13.708 98.3895 13.5547 98.2471C13.4671 98.1662 13.3794 98.0852 13.289 98.0019C12.8823 97.5857 12.5226 97.1362 12.1518 96.6875C12.2612 96.6869 12.3707 96.6864 12.4834 96.6858C15.1994 96.6718 17.9155 96.6562 20.6315 96.6389C21.9451 96.6306 23.2588 96.6227 24.5725 96.6162C29.8592 96.5895 35.143 96.5471 40.427 96.3639C40.6201 96.3575 40.8132 96.351 41.0122 96.3444C45.8124 96.1798 45.8124 96.1798 50.5685 95.5465C50.7263 95.5178 50.884 95.4891 51.0466 95.4595C54.6 94.7831 58.0235 93.8018 60.5894 91.1094C60.7062 90.9937 60.823 90.8779 60.9434 90.7587C65.639 85.8565 65.4636 77.6569 65.3334 71.3242C65.1827 65.8716 64.3176 60.6782 60.2123 56.775C52.9109 50.4807 39.1853 52.0434 30.2117 51.729C30.0079 51.7219 29.8041 51.7147 29.5942 51.7074C27.5221 51.6348 25.45 51.5636 23.3778 51.496C19.3695 51.3648 15.3626 51.218 11.3577 51.0056C10.9722 50.9852 10.5866 50.9652 10.201 50.9459C8.33892 50.8512 6.48329 50.7285 4.63305 50.493C4.4914 50.4769 4.34974 50.4608 4.20379 50.4443C2.96402 50.27 2.09479 49.7654 1.21328 48.8825C0.199452 47.4029 0.164251 45.8587 0.337774 44.1179C0.567033 42.8976 1.02107 42.1071 1.97605 41.3183C3.14023 40.5873 4.23062 40.4352 5.58025 40.2935C5.7531 40.273 5.92595 40.2525 6.10404 40.2314C9.53221 39.8511 12.9861 39.8665 16.4304 39.8696C16.8825 39.8695 17.3345 39.8693 17.7865 39.8691C18.7275 39.8688 19.6684 39.8692 20.6094 39.87C21.6871 39.8709 22.7649 39.8706 23.8427 39.8697C24.7794 39.8689 25.7162 39.8688 26.653 39.8692C27.2075 39.8695 27.7621 39.8695 28.3166 39.869C30.3084 39.8676 32.2983 39.8684 34.2882 39.9654C34.4823 39.9748 34.4823 39.9748 34.6804 39.9844C36.8914 40.1086 39.6095 40.2663 41.2168 41.9812C42.1854 43.4162 42.084 45.35 42.1932 46.9915C49.0437 46.9915 55.8941 46.9915 62.9522 46.9915C62.9486 37.4314 62.9486 37.4314 58.4678 29.2521C47.9478 20.342 25.3756 23.7081 12.8374 23.8972C12.6469 23.8998 12.4564 23.9023 12.2602 23.905C8.1704 23.9628 4.08584 24.1565 0.000230189 24.3409C-0.011531 22.0177 -0.0205131 19.6946 -0.0260033 17.3714C-0.0286391 16.2925 -0.0322112 15.2136 -0.037966 14.1347C-0.0434905 13.0924 -0.0464995 12.0501 -0.0478073 11.0078C-0.0487387 10.6113 -0.0505574 10.2148 -0.0533023 9.81828C-0.0734746 6.78202 -0.0700049 4.41869 2.06769 2.07065C3.94509 0.289298 6.68808 -0.0271042 9.15767 -0.0217905ZM73.0785 24.848C73.0785 48.2203 73.0785 71.5927 73.0785 95.6733C80.1517 95.6733 87.2249 95.6733 94.5125 95.6733C94.5682 87.585 94.6239 79.4967 94.6813 71.1633C111.39 71.1076 128.098 71.0518 145.313 70.9943C145.313 65.6951 145.313 60.3959 145.313 54.9361C128.549 54.9361 111.785 54.9361 94.5125 54.9361C94.5125 50.4736 94.5125 46.0111 94.5125 41.4133C112.112 41.4133 129.712 41.4133 147.844 41.4133C147.844 35.9468 147.844 30.4802 147.844 24.848C123.172 24.848 98.4989 24.848 73.0785 24.848ZM152.908 24.848C152.908 48.2203 152.908 71.5927 152.908 95.6733C159.981 95.6733 167.054 95.6733 174.342 95.6733C174.397 89.9836 174.453 84.2939 174.51 78.4318C178.456 78.4194 178.456 78.4194 182.481 78.4067C184.159 78.4007 185.837 78.3946 187.516 78.3882C190.173 78.3781 192.829 78.3682 195.486 78.3605C197.422 78.3549 199.358 78.3481 201.294 78.34C202.317 78.3358 203.339 78.3321 204.361 78.3298C208.106 78.3209 211.846 78.3061 215.587 78.1085C215.78 78.0985 215.78 78.0985 215.976 78.0883C222.458 77.7419 228.936 76.5898 233.538 71.681C237.941 66.6061 237.898 58.4248 237.866 52.0601C237.863 51.4894 237.865 50.9188 237.868 50.3481C237.894 44.1761 237.842 35.7114 233.262 30.9424C233.033 30.7116 232.801 30.4842 232.568 30.2571C232.457 30.1444 232.346 30.0318 232.232 29.9157C228.253 26.1278 221.654 25.2786 216.447 25.0003C216.317 24.9931 216.186 24.9859 216.051 24.9785C213.155 24.8225 210.263 24.8013 207.363 24.8088C206.617 24.8103 205.872 24.8097 205.127 24.8095C203.69 24.8093 202.253 24.8108 200.817 24.813C199.15 24.8155 197.482 24.8157 195.815 24.816C191.428 24.8178 187.041 24.8225 182.654 24.8269C172.837 24.8338 163.021 24.8408 152.908 24.848Z" fill="#ED313D"/>
<path d="M174.342 42.4276C181.947 42.4139 181.947 42.4139 185.169 42.4111C187.381 42.4091 189.593 42.4067 191.805 42.4021C193.417 42.3987 195.029 42.3965 196.641 42.3958C197.492 42.3953 198.342 42.3943 199.193 42.3918C202.368 42.3829 205.535 42.3877 208.705 42.5775C208.875 42.5874 208.875 42.5874 209.049 42.5975C213.35 42.8548 213.35 42.8548 214.9 44.4771C216.973 47.1514 216.61 51.7454 216.239 54.915C216.085 55.9559 215.845 56.8778 215.353 57.8097C215.297 57.9184 215.24 58.0271 215.181 58.1391C214.462 59.3128 213.221 59.9291 211.936 60.3135C210.985 60.5128 210.051 60.5706 209.083 60.6101C208.838 60.6205 208.838 60.6205 208.588 60.6312C206.944 60.6967 205.302 60.7059 203.656 60.7024C203.333 60.7024 203.01 60.7024 202.687 60.7025C201.823 60.7026 200.959 60.7016 200.096 60.7004C199.188 60.6993 198.28 60.6992 197.372 60.699C195.659 60.6985 193.946 60.6971 192.234 60.6954C189.915 60.6932 187.596 60.6923 185.277 60.6913C181.632 60.6897 177.987 60.6863 174.342 60.6832C174.342 54.6589 174.342 48.6345 174.342 42.4276Z" fill="#ED313D"/>
<path d="M-0.000218845 67.2756C3.02269 67.2242 6.03695 67.3728 9.05574 67.5089C9.79706 67.5422 10.5384 67.5745 11.2798 67.6068C13.0043 67.6823 14.7287 67.7588 16.4532 67.8354C18.6361 67.9325 20.819 68.0291 23.002 68.1246C23.7339 68.1566 24.4657 68.1889 25.1976 68.2218C26.0204 68.2588 26.8432 68.2952 27.6661 68.331C27.7983 68.3368 27.9305 68.3426 28.0668 68.3485C29.594 68.4146 31.1209 68.4679 32.6493 68.5016C32.7959 68.5049 32.9426 68.5082 33.0938 68.5116C33.7934 68.5271 34.4931 68.5411 35.1928 68.5521C36.5035 68.5763 37.7993 68.642 39.1029 68.7846C39.2259 68.7979 39.3489 68.8113 39.4756 68.8251C41.2126 69.0309 42.915 69.3884 44.0493 70.8253C45.0732 72.6533 44.8776 75.1186 44.3868 77.0795C44.0089 78.2085 43.5055 78.9741 42.4723 79.5847C40.6346 80.4021 38.535 80.4781 36.5534 80.5137C36.3823 80.5172 36.2112 80.5208 36.0349 80.5244C35.4645 80.5357 34.8942 80.5456 34.3238 80.5553C34.1239 80.5588 33.924 80.5624 33.7181 80.566C26.3579 80.6925 18.9946 80.6814 11.6345 80.5553C11.4349 80.552 11.2353 80.5487 11.0296 80.5453C3.18293 80.4106 3.18293 80.4106 1.40402 78.861C0.116458 77.4945 -0.0998491 75.9207 -0.0661454 74.1096C-0.0651902 73.9131 -0.0642349 73.7166 -0.0632508 73.5142C-0.0595002 72.8925 -0.0510326 72.271 -0.0424118 71.6493C-0.0390224 71.2254 -0.0359427 70.8015 -0.0331821 70.3776C-0.0257764 69.3435 -0.0145075 68.3096 -0.000218845 67.2756Z" fill="#ED313D"/>
<path d="M352.059 40.5682C366.853 40.5682 366.853 40.5682 369.468 43.1209C371.254 45.063 372.168 47.1923 372.142 49.8651C371.994 52.094 371.259 53.9438 369.78 55.6122C369.695 55.7161 369.611 55.8201 369.525 55.9272C368.634 56.94 367.437 57.4232 366.235 57.9787C366.01 58.0907 365.785 58.2033 365.56 58.3168C365.622 58.4041 365.684 58.4915 365.748 58.5815C365.934 58.8451 366.12 59.1091 366.306 59.3733C366.521 59.6789 366.738 59.9833 366.956 60.2866C367.48 61.0226 367.963 61.7384 368.351 62.5558C368.896 63.6961 368.896 63.6961 369.78 64.571C371.091 64.9514 372.484 64.8583 373.83 64.7401C373.542 65.9426 373.227 67.1344 372.881 68.3215C372.826 68.5128 372.826 68.5128 372.769 68.708C372.5 69.6216 372.5 69.6216 372.311 69.8111C370.58 70.3124 368.411 70.6698 366.742 69.8111C364.724 68.1581 363.497 65.3851 362.257 63.1414C361.804 62.3331 361.317 61.5473 360.813 60.7697C360.596 60.435 360.385 60.096 360.183 59.7522C360.092 59.606 360 59.4598 359.905 59.3092C359.831 59.1853 359.757 59.0614 359.68 58.9338C359.167 58.4905 359.167 58.4905 357.628 58.4858C357.628 62.2231 357.628 65.9605 357.628 69.8111C355.79 69.8111 353.952 69.8111 352.059 69.8111C352.059 60.1609 352.059 50.5108 352.059 40.5682ZM357.628 45.8082C357.628 48.3184 357.628 50.8285 357.628 53.4148C358.401 53.4217 359.174 53.4287 359.97 53.4359C360.21 53.439 360.45 53.4421 360.698 53.4452C363.122 53.4717 363.122 53.4717 365.223 52.4006C366.064 51.5489 366.452 50.76 366.467 49.5587C366.444 48.4434 366.219 47.6813 365.451 46.8647C364.464 45.9668 363.622 45.7571 362.292 45.7752C362.114 45.7757 362.114 45.7757 361.933 45.7763C361.493 45.778 361.053 45.7827 360.613 45.7871C359.628 45.7941 358.643 45.801 357.628 45.8082Z" fill="#ED313D"/>
<path d="M380.467 40.5467C380.624 40.5463 380.782 40.5458 380.944 40.5453C381.206 40.5458 381.206 40.5458 381.473 40.5463C381.655 40.546 381.838 40.5457 382.026 40.5454C382.632 40.5447 383.238 40.5452 383.845 40.5457C384.264 40.5456 384.684 40.5455 385.103 40.5453C386.096 40.545 387.089 40.5456 388.083 40.5465C388.876 40.5471 389.669 40.5469 390.463 40.5462C391.554 40.5452 392.645 40.545 393.736 40.5456C394.154 40.5457 394.571 40.5455 394.988 40.5452C395.57 40.5447 396.152 40.5454 396.734 40.5463C396.908 40.546 397.083 40.5456 397.262 40.5453C397.499 40.546 397.499 40.546 397.74 40.5467C397.878 40.5468 398.015 40.5469 398.157 40.5469C398.47 40.5682 398.47 40.5682 398.639 40.7372C398.639 42.3549 398.639 43.9725 398.639 45.6392C392.039 45.7229 392.039 45.7229 385.306 45.8083C385.25 48.0395 385.194 50.2708 385.137 52.5696C389.091 52.5696 393.046 52.5696 397.12 52.5696C397.12 54.2431 397.12 55.9165 397.12 57.6406C393.166 57.6406 389.211 57.6406 385.137 57.6406C385.137 59.9835 385.137 62.3263 385.137 64.7401C389.76 64.7401 394.382 64.7401 399.145 64.7401C398.976 66.0923 398.976 66.0923 397.795 69.8111C391.78 69.8111 385.765 69.8111 379.568 69.8111C379.561 62.5269 379.561 62.5269 379.559 59.4845C379.558 57.3802 379.557 55.2759 379.555 53.1717C379.553 51.6394 379.552 50.1072 379.552 48.575C379.552 47.7631 379.551 46.9513 379.55 46.1395C379.549 45.3763 379.548 44.6131 379.549 43.8499C379.549 43.5689 379.548 43.2879 379.548 43.007C379.547 42.6251 379.547 42.2432 379.547 41.8613C379.547 41.6471 379.547 41.4328 379.547 41.2121C379.58 40.464 379.79 40.547 380.467 40.5467Z" fill="#ED313C"/>
<path d="M315.435 40.5682C321.06 40.5682 326.685 40.5682 332.481 40.5682C332.481 42.2416 332.481 43.9151 332.481 45.6392C328.693 45.6392 324.906 45.6392 321.004 45.6392C321.004 48.2051 321.004 50.7711 321.004 53.4148C324.513 53.4148 328.022 53.4148 331.637 53.4148C331.258 55.1225 330.766 56.8037 330.287 58.4858C327.223 58.4858 324.16 58.4858 321.004 58.4858C321.004 62.2231 321.004 65.9605 321.004 69.8111C319.166 69.8111 317.328 69.8111 315.435 69.8111C315.435 60.1609 315.435 50.5108 315.435 40.5682Z" fill="#ED313D"/>
<path d="M336.531 102.435C337.144 102.435 337.757 102.435 338.388 102.435C339.289 103.999 340.145 105.584 340.972 107.189C341.712 108.622 342.461 110.05 343.229 111.467C343.315 111.626 343.4 111.784 343.488 111.947C343.567 112.092 343.646 112.237 343.727 112.386C343.796 112.513 343.865 112.64 343.937 112.771C344.124 113.109 344.124 113.109 344.464 113.422C344.535 113.283 344.606 113.143 344.679 113C345.937 110.542 347.199 108.09 348.53 105.671C349.116 104.604 349.67 103.529 350.202 102.435C350.814 102.435 351.427 102.435 352.058 102.435C352.058 107.901 352.058 113.368 352.058 119C351 119 349.942 119 348.852 119C348.796 116.88 348.74 114.761 348.683 112.577C347.887 114.121 347.887 114.121 347.093 115.666C346.514 116.787 345.928 117.901 345.307 119C344.695 119 344.082 119 343.451 119C343.141 118.433 342.832 117.866 342.523 117.299C342.437 117.143 342.352 116.987 342.264 116.826C341.525 115.471 340.801 114.109 340.075 112.746C340.02 114.81 339.964 116.874 339.907 119C338.793 119 337.679 119 336.531 119C336.531 113.533 336.531 108.067 336.531 102.435Z" fill="black"/>
<path d="M338.894 40.5682C340.676 40.5682 342.458 40.5682 344.294 40.5682C344.294 50.2183 344.294 59.8685 344.294 69.8111C342.456 69.8111 340.618 69.8111 338.725 69.8111C338.721 66.0232 338.718 62.2354 338.716 58.4475C338.715 56.6889 338.714 54.9303 338.712 53.1717C338.71 51.6394 338.709 50.1072 338.709 48.5749C338.709 47.7631 338.708 46.9513 338.707 46.1394C338.706 45.3762 338.706 44.613 338.706 43.8498C338.706 43.5689 338.705 43.2879 338.705 43.007C338.704 42.6251 338.704 42.2432 338.705 41.8613C338.704 41.647 338.704 41.4328 338.704 41.2121C338.725 40.7372 338.725 40.7372 338.894 40.5682Z" fill="#ED303C"/>
<path d="M466.485 76.9105C468.511 76.9105 468.511 76.9105 469.117 77.382C469.287 77.5933 469.45 77.8098 469.608 78.0304C469.792 78.2648 469.976 78.4992 470.161 78.7336C470.251 78.853 470.342 78.9724 470.435 79.0955C470.845 79.6286 471.286 80.1327 471.728 80.6398C471.895 80.8347 472.061 81.0297 472.228 81.2249C472.569 81.6243 472.911 82.0231 473.253 82.4213C474.149 83.4637 475.036 84.5113 475.898 85.5828C476.404 86.196 476.932 86.7916 477.456 87.3906C477.511 83.9322 477.567 80.4738 477.624 76.9105C478.738 76.9105 479.852 76.9105 481 76.9105C481 82.8233 481 88.7361 481 94.8281C479.143 94.8281 479.143 94.8281 478.59 94.3937C478.435 94.1977 478.285 93.9971 478.141 93.7928C477.971 93.5739 477.801 93.3551 477.63 93.1365C477.546 93.024 477.461 92.9115 477.374 92.7956C476.972 92.2714 476.539 91.7765 476.105 91.2784C475.936 91.0814 475.768 90.8842 475.599 90.6868C475.515 90.5892 475.432 90.4916 475.346 90.391C474.966 89.9473 474.966 89.9473 474.586 89.5036C474.503 89.4058 474.419 89.3081 474.333 89.2074C474.165 89.0113 473.997 88.8152 473.83 88.6191C473.393 88.1091 472.956 87.5992 472.52 87.0895C472.429 86.9843 472.339 86.8791 472.246 86.7706C472.075 86.5712 471.904 86.3718 471.733 86.1724C471.655 86.0811 471.577 85.9898 471.496 85.8957C471.395 85.7776 471.395 85.7776 471.292 85.657C470.924 85.2231 470.562 84.7851 470.198 84.348C470.143 87.8065 470.087 91.2649 470.03 94.8281C468.86 94.8281 467.69 94.8281 466.485 94.8281C466.485 88.9153 466.485 83.0025 466.485 76.9105Z" fill="black"/>
<path d="M363.269 78.5632C365.023 80.0074 365.877 81.8896 366.361 84.0733C366.575 87.1752 366.168 89.8791 364.157 92.356C362.367 94.248 359.976 95.1096 357.406 95.219C355.024 95.1426 352.557 94.2804 350.82 92.6076C349.06 90.6378 348.243 88.0814 348.314 85.456C348.498 82.8855 349.353 80.4831 351.305 78.721C354.917 75.9372 359.6 75.8707 363.269 78.5632ZM353.028 81.8653C351.933 83.5495 351.712 85.2504 351.889 87.2216C352.221 88.785 352.998 90.0587 354.294 90.9932C355.543 91.766 356.898 92.169 358.359 91.8753C359.941 91.4658 361.261 90.614 362.184 89.25C363.065 87.6342 363.082 85.5884 362.762 83.8059C362.328 82.4261 361.434 81.2951 360.221 80.5111C357.621 79.1547 355.043 79.7917 353.028 81.8653Z" fill="black"/>
<path d="M459.229 78.4318C460.973 79.885 462.112 81.7399 462.435 84.0099C462.615 86.0484 462.598 88.0319 461.76 89.9261C461.701 90.0617 461.642 90.1972 461.581 90.3368C460.552 92.4056 458.783 93.8905 456.642 94.6908C454.127 95.4558 451.487 95.3317 449.134 94.1308C446.674 92.6869 445.339 90.7671 444.615 88.0284C444.187 85.1342 444.613 82.411 446.233 79.9531C449.392 76.032 455.237 75.4872 459.229 78.4318ZM448.844 82.2998C447.858 83.7199 447.782 85.6856 448.026 87.3483C448.372 88.9257 449.246 90.2724 450.612 91.1516C452.054 91.9222 453.406 92.1078 455.009 91.7855C456.616 91.1874 457.761 90.2727 458.553 88.7429C459.254 86.797 459.248 84.9419 458.553 82.9957C457.8 81.4597 456.598 80.5235 455.009 79.9531C452.523 79.2508 450.407 80.4108 448.844 82.2998Z" fill="black"/>
<path d="M332.144 76.9105C341.186 76.9105 341.186 76.9105 342.818 78.4556C344.107 79.8248 344.395 81.1454 344.347 82.9984C344.229 84.528 343.587 85.7031 342.439 86.7145C341.205 87.5597 341.205 87.5597 340.413 87.5597C340.827 88.2338 341.243 88.9057 341.667 89.5729C341.912 89.9575 342.14 90.3368 342.356 90.739C342.585 91.132 342.735 91.362 343.114 91.6165C343.924 91.7778 344.643 91.7855 345.477 91.7855C345.198 92.7896 344.92 93.7936 344.633 94.8281C344.066 94.8741 343.502 94.9073 342.934 94.9338C342.775 94.9479 342.616 94.9621 342.452 94.9767C341.772 95.0004 341.288 95.0098 340.769 94.5368C340.449 94.0854 340.18 93.6194 339.907 93.1378C339.639 92.7117 339.364 92.2908 339.089 91.8694C338.943 91.6446 338.798 91.4198 338.653 91.1949C338.58 91.0821 338.507 90.9692 338.431 90.853C338.282 90.6204 338.133 90.3871 337.985 90.1532C337.769 89.8112 337.549 89.4721 337.327 89.1331C337.23 88.976 337.23 88.976 337.131 88.8157C336.92 88.4832 336.92 88.4832 336.532 88.0668C336.197 88.011 335.863 87.9552 335.519 87.8977C335.519 90.1848 335.519 92.4718 335.519 94.8281C334.405 94.8281 333.291 94.8281 332.144 94.8281C332.144 88.9153 332.144 83.0025 332.144 76.9105ZM335.519 80.1222C335.519 81.6283 335.519 83.1344 335.519 84.6861C336.318 84.7018 336.318 84.7018 337.133 84.7178C337.298 84.7224 337.464 84.727 337.634 84.7318C338.772 84.7425 339.601 84.6042 340.477 83.8198C340.852 83.1547 340.974 82.5754 340.92 81.8125C340.714 81.1819 340.397 80.7404 339.856 80.3458C339.347 80.0956 339.033 80.0632 338.469 80.0726C338.236 80.0745 338.236 80.0745 337.998 80.0765C337.803 80.0811 337.608 80.0857 337.407 80.0905C336.784 80.1009 336.161 80.1114 335.519 80.1222Z" fill="black"/>
<path d="M393.238 102.435C402.423 102.435 402.423 102.435 404.546 104.125C404.65 104.206 404.754 104.287 404.86 104.37C406.159 105.515 407.13 107.554 407.283 109.267C407.408 112.053 407.115 114.417 405.278 116.634C403.97 118.019 402.719 118.419 400.833 119C398.327 119 395.82 119 393.238 119C393.238 113.533 393.238 108.067 393.238 102.435ZM396.445 105.308C396.445 108.878 396.445 112.448 396.445 116.126C399.814 116.289 399.814 116.289 402.574 114.767C403.806 113.332 404.13 111.9 404.104 110.019C403.967 108.626 403.392 107.271 402.352 106.322C400.342 105.105 399.006 105.308 396.445 105.308Z" fill="black"/>
<path d="M349.189 15.8892C353.032 15.8892 356.875 15.8892 360.835 15.8892C360.835 16.8933 360.835 17.8973 360.835 18.9318C358.106 18.9318 355.377 18.9318 352.565 18.9318C352.565 20.3264 352.565 21.7209 352.565 23.1577C354.96 23.1577 357.355 23.1577 359.822 23.1577C359.822 24.2175 359.822 25.2774 359.822 26.3693C357.427 26.3693 355.032 26.3693 352.565 26.3693C352.565 27.8196 352.565 29.27 352.565 30.7642C355.405 30.7642 358.246 30.7642 361.172 30.7642C360.917 31.7854 360.661 32.8082 360.328 33.8068C356.653 33.8068 352.977 33.8068 349.189 33.8068C349.189 27.894 349.189 21.9812 349.189 15.8892Z" fill="black"/>
<path d="M385.812 76.9105C389.655 76.9105 393.498 76.9105 397.458 76.9105C397.458 77.9146 397.458 78.9186 397.458 79.9531C394.729 79.9531 392 79.9531 389.188 79.9531C389.188 81.3477 389.188 82.7422 389.188 84.179C391.583 84.179 393.978 84.179 396.445 84.179C396.445 85.2388 396.445 86.2987 396.445 87.3906C394.05 87.3906 391.655 87.3906 389.188 87.3906C389.188 88.8409 389.188 90.2913 389.188 91.7855C392.028 91.7855 394.869 91.7855 397.795 91.7855C397.54 92.8067 397.284 93.8295 396.951 94.8281C393.276 94.8281 389.6 94.8281 385.812 94.8281C385.812 88.9153 385.812 83.0025 385.812 76.9105Z" fill="black"/>
<path d="M325.881 16.6379C327.038 17.5034 327.803 18.52 328.092 19.946C328.092 20.0576 328.092 20.1691 328.092 20.2841C326.979 20.4514 325.865 20.6187 324.717 20.7912C324.299 20.1218 324.299 20.1218 323.873 19.4389C322.963 18.8668 322.051 18.8041 321.004 18.9318C320.402 19.1046 319.933 19.3279 319.485 19.777C319.372 20.746 319.372 20.746 319.802 21.5835C320.864 22.3709 322.039 22.8326 323.264 23.3093C325.259 24.0873 327.261 24.8732 328.278 26.9094C328.768 28.2193 328.74 29.5173 328.299 30.8394C327.68 32.1317 326.626 33.0835 325.326 33.6556C323.096 34.4212 320.907 34.3047 318.789 33.2786C317.129 32.4256 316.268 31.4683 315.572 29.7381C315.435 29.2429 315.435 29.2429 315.435 28.2287C316.548 28.0613 317.662 27.894 318.81 27.7216C318.869 27.9796 318.928 28.2375 318.989 28.5033C319.269 29.433 319.667 29.9322 320.498 30.4261C321.474 30.8243 322.573 30.9913 323.583 30.6242C324.092 30.3768 324.484 30.1524 324.886 29.75C324.938 28.9423 324.965 28.4258 324.548 27.7216C323.663 26.9688 322.546 26.596 321.468 26.2108C317.103 24.5839 317.103 24.5839 316.084 22.6122C315.608 21.3678 315.598 20.137 316.057 18.8895C316.689 17.4876 317.607 16.7062 318.979 16.0582C321.294 15.2423 323.747 15.3399 325.881 16.6379Z" fill="black"/>
<path d="M332.48 15.8892C342.055 15.8892 342.055 15.8892 343.679 17.4594C343.771 17.5548 343.863 17.6503 343.957 17.7486C344.082 17.8776 344.208 18.0066 344.337 18.1395C345.349 19.697 345.543 21.2569 345.233 23.0864C344.82 24.566 343.804 25.6495 342.556 26.4895C341.057 27.2064 339.673 27.2803 338.029 27.2462C337.312 27.2357 336.595 27.2253 335.856 27.2145C335.856 29.39 335.856 31.5654 335.856 33.8068C334.742 33.8068 333.628 33.8068 332.48 33.8068C332.48 27.894 332.48 21.9812 332.48 15.8892ZM336.025 19.1009C336.025 20.7185 336.025 22.3362 336.025 24.0029C336.644 24.0133 337.264 24.0238 337.902 24.0346C338.096 24.0392 338.289 24.0438 338.488 24.0485C339.728 24.0587 340.479 23.9263 341.394 23.0309C341.869 22.3236 342.024 21.8016 341.868 20.9523C341.637 20.1828 341.317 19.7355 340.632 19.2697C339.819 18.916 338.93 19.0161 338.06 19.048C337.389 19.0655 336.717 19.0829 336.025 19.1009Z" fill="black"/>
<path d="M315.435 76.9105C325.045 76.9105 325.045 76.9105 326.883 78.6841C327.982 79.958 328.33 81.3489 328.307 83.001C328.169 84.5078 327.478 85.8309 326.405 86.8835C324.692 88.1877 323.09 88.2854 321.004 88.2569C320.28 88.25 319.556 88.243 318.81 88.2358C318.81 90.4113 318.81 92.5867 318.81 94.8281C317.696 94.8281 316.582 94.8281 315.435 94.8281C315.435 88.9153 315.435 83.0025 315.435 76.9105ZM318.81 80.1222C318.81 81.7398 318.81 83.3575 318.81 85.0242C319.457 85.0346 320.105 85.0451 320.772 85.0559C320.974 85.0605 321.176 85.0651 321.385 85.0698C322.335 85.0773 323.064 85.0804 323.873 84.5171C324.591 83.7199 324.767 83.2426 324.754 82.1928C324.673 81.361 324.141 80.8221 323.536 80.2912C322.999 80.1121 322.62 80.1028 322.057 80.1057C321.887 80.1061 321.717 80.1065 321.542 80.1069C321.326 80.1085 321.11 80.11 320.888 80.1116C320.202 80.1151 319.517 80.1186 318.81 80.1222Z" fill="black"/>
<path d="M427.967 17.0427C428.872 17.7352 429.577 18.4852 430.2 19.4389C429.621 19.9138 429.032 20.3495 428.406 20.7595C428.248 20.8652 428.089 20.9709 427.925 21.0798C427.714 21.1879 427.714 21.1879 427.499 21.2983C426.922 21.1057 426.82 20.9528 426.455 20.4848C425.645 19.5253 424.664 19.0274 423.416 18.8916C422.067 18.8492 420.766 19.1598 419.673 19.9883C418.362 21.3637 417.873 22.956 417.816 24.848C417.876 26.6748 418.314 28.2158 419.567 29.581C420.664 30.4986 421.914 30.8487 423.332 30.8184C424.476 30.682 425.686 30.2601 426.487 29.4119C426.843 28.9163 427.177 28.4095 427.499 27.8906C427.975 28.1026 428.449 28.3184 428.923 28.5351C429.059 28.5953 429.194 28.6556 429.334 28.7177C429.463 28.777 429.592 28.8364 429.724 28.8976C429.903 28.9786 429.903 28.9786 430.086 29.0612C430.368 29.2429 430.368 29.2429 430.537 29.75C429.434 31.8032 427.658 33.1078 425.474 33.8068C423.144 34.402 420.752 34.226 418.617 33.0462C416.238 31.5389 415.112 29.7011 414.4 26.9893C413.994 24.1809 414.315 21.2625 416.023 18.9318C416.109 18.8124 416.196 18.693 416.285 18.57C419.066 15.0782 424.36 14.666 427.967 17.0427Z" fill="black"/>
<path d="M414.977 78.4622C415.756 79.133 416.273 79.68 416.698 80.6292C416.288 80.9124 415.876 81.1939 415.464 81.4744C415.348 81.555 415.231 81.6357 415.111 81.7187C414.998 81.795 414.886 81.8713 414.77 81.9498C414.666 82.0206 414.563 82.0915 414.456 82.1644C414.167 82.3196 414.167 82.3196 413.66 82.3196C413.443 82.0535 413.443 82.0535 413.217 81.6963C412.546 80.7488 411.597 80.169 410.454 79.9531C408.743 79.8128 407.51 80.0427 406.182 81.1575C405.097 82.1913 404.547 83.4203 404.506 84.9191C404.46 87.0544 404.517 88.8525 406.066 90.4801C407.192 91.4518 408.345 91.8504 409.813 91.833C411.103 91.7029 412.261 91.2012 413.154 90.2642C413.46 89.826 413.733 89.376 413.998 88.9119C414.474 89.1239 414.948 89.3397 415.422 89.5564C415.557 89.6166 415.693 89.6769 415.832 89.7389C415.961 89.7983 416.09 89.8577 416.223 89.9189C416.402 89.9999 416.402 89.9999 416.584 90.0825C416.867 90.2642 416.867 90.2642 417.036 90.7713C416.284 92.4682 414.667 93.8001 412.985 94.4907C410.142 95.4373 407.737 95.3289 405.053 93.9829C404.565 93.6815 404.134 93.3462 403.703 92.9687C403.603 92.8881 403.503 92.8075 403.399 92.7244C401.643 91.1756 400.965 88.7146 400.787 86.4609C400.711 83.7229 401.414 81.0535 403.323 79.0234C406.59 75.9993 411.452 75.7149 414.977 78.4622Z" fill="black"/>
<path d="M372.412 15.5162C374.716 15.4266 376.904 16.1479 378.682 17.6271C379.33 18.2501 379.781 18.7473 380.075 19.608C379.664 19.8911 379.253 20.1726 378.841 20.4531C378.724 20.5338 378.608 20.6144 378.488 20.6974C378.375 20.7737 378.263 20.85 378.147 20.9285C378.043 20.9994 377.94 21.0702 377.833 21.1431C377.543 21.2983 377.543 21.2983 377.037 21.2983C376.819 21.0322 376.819 21.0322 376.594 20.675C375.923 19.7275 374.974 19.1477 373.83 18.9318C372.205 18.7985 370.934 18.9936 369.653 20.0411C368.685 20.9583 368.006 22.1685 367.893 23.5153C367.835 25.6814 367.797 27.4794 369.231 29.2323C370.038 30.0731 370.966 30.6493 372.143 30.7642C372.249 30.7749 372.356 30.7856 372.466 30.7966C373.961 30.8787 375.317 30.3689 376.44 29.3875C376.822 28.9251 377.087 28.4167 377.375 27.8906C377.851 28.1026 378.325 28.3184 378.799 28.5351C378.934 28.5953 379.069 28.6556 379.209 28.7176C379.338 28.777 379.467 28.8364 379.6 28.8976C379.779 28.9786 379.779 28.9786 379.961 29.0612C380.244 29.2429 380.244 29.2429 380.412 29.75C379.503 31.6449 377.915 32.8306 376.024 33.6378C373.544 34.3858 371.274 34.2998 368.894 33.1941C366.795 32.0548 365.383 30.3765 364.653 28.1019C363.845 25.159 364.083 22.1822 365.551 19.4766C366.821 17.4825 368.884 16.1644 371.183 15.6357C371.592 15.5789 372 15.5491 372.412 15.5162Z" fill="black"/>
<path d="M378.725 102.435C382.289 102.435 385.854 102.435 389.526 102.435C389.526 103.383 389.526 104.331 389.526 105.308C387.02 105.308 384.513 105.308 381.931 105.308C381.931 106.591 381.931 107.874 381.931 109.196C384.159 109.196 386.387 109.196 388.682 109.196C388.682 110.144 388.682 111.093 388.682 112.07C386.454 112.07 384.227 112.07 381.931 112.07C381.931 113.408 381.931 114.747 381.931 116.126C384.549 116.126 387.167 116.126 389.864 116.126C389.526 117.817 389.526 117.817 389.188 119C385.735 119 382.282 119 378.725 119C378.725 113.533 378.725 108.067 378.725 102.435Z" fill="black"/>
<path d="M392.395 15.8892C395.903 15.8892 399.412 15.8892 403.027 15.8892C403.027 16.8933 403.027 17.8973 403.027 18.9318C400.688 18.9318 398.349 18.9318 395.939 18.9318C395.939 20.4937 395.939 22.0556 395.939 23.6648C398.055 23.6648 400.172 23.6648 402.352 23.6648C402.242 24.4339 402.134 25.1046 401.93 25.8411C401.887 26.001 401.843 26.161 401.798 26.3258C401.677 26.7074 401.677 26.7074 401.508 26.8764C401.095 26.8914 400.687 26.8959 400.273 26.8929C400.164 26.8928 400.055 26.8926 399.942 26.8924C399.532 26.8915 399.123 26.8892 398.713 26.887C397.34 26.8818 397.34 26.8818 395.939 26.8764C395.939 29.1635 395.939 31.4505 395.939 33.8068C394.769 33.8068 393.6 33.8068 392.395 33.8068C392.395 27.894 392.395 21.9812 392.395 15.8892Z" fill="black"/>
<path d="M368.429 76.9105C373.051 76.9105 377.674 76.9105 382.437 76.9105C382.329 77.6697 382.234 78.289 382.015 79.0023C381.971 79.1466 381.928 79.2908 381.883 79.4394C381.762 79.7841 381.762 79.7841 381.593 79.9531C380.145 79.9531 378.697 79.9531 377.205 79.9531C377.205 84.8619 377.205 89.7706 377.205 94.8281C376.035 94.8281 374.866 94.8281 373.661 94.8281C373.661 89.9194 373.661 85.0106 373.661 79.9531C371.934 79.9531 370.208 79.9531 368.429 79.9531C368.429 78.9491 368.429 77.945 368.429 76.9105Z" fill="black"/>
<path d="M419.735 76.9105C424.358 76.9105 428.981 76.9105 433.743 76.9105C433.068 79.6151 433.068 79.6151 432.9 79.9531C431.396 79.9531 429.892 79.9531 428.343 79.9531C428.343 84.8619 428.343 89.7706 428.343 94.8281C427.229 94.8281 426.115 94.8281 424.967 94.8281C424.967 89.9194 424.967 85.0106 424.967 79.9531C423.241 79.9531 421.514 79.9531 419.735 79.9531C419.735 78.9491 419.735 77.945 419.735 76.9105Z" fill="black"/>
<path d="M362.859 102.435C367.148 102.435 371.436 102.435 375.855 102.435C375.576 103.383 375.298 104.331 375.011 105.308C373.619 105.308 372.226 105.308 370.792 105.308C370.792 109.827 370.792 114.345 370.792 119C369.733 119 368.675 119 367.585 119C367.585 114.482 367.585 109.963 367.585 105.308C366.026 105.308 364.466 105.308 362.859 105.308C362.859 104.36 362.859 103.412 362.859 102.435Z" fill="black"/>
<path d="M315.435 102.435C316.493 102.435 317.551 102.435 318.641 102.435C318.641 106.953 318.641 111.471 318.641 116.126C321.092 116.126 323.542 116.126 326.067 116.126C325.789 117.075 325.51 118.023 325.223 119C321.993 119 318.763 119 315.435 119C315.435 113.533 315.435 108.067 315.435 102.435Z" fill="black"/>
<path d="M436.95 76.9105C438.12 76.9105 439.289 76.9105 440.494 76.9105C440.494 82.8233 440.494 88.7361 440.494 94.8281C439.325 94.8281 438.155 94.8281 436.95 94.8281C436.95 88.9153 436.95 83.0025 436.95 76.9105Z" fill="black"/>
<path d="M406.74 15.8892C407.91 15.8892 409.079 15.8892 410.284 15.8892C410.284 21.802 410.284 27.7148 410.284 33.8068C409.115 33.8068 407.945 33.8068 406.74 33.8068C406.74 27.894 406.74 21.9812 406.74 15.8892Z" fill="black"/>
<path d="M384.294 15.8892C385.464 15.8892 386.633 15.8892 387.838 15.8892C387.838 21.802 387.838 27.7148 387.838 33.8068C386.669 33.8068 385.499 33.8068 384.294 33.8068C384.294 27.894 384.294 21.9812 384.294 15.8892Z" fill="black"/>
<path d="M356.446 102.435C357.504 102.435 358.563 102.435 359.653 102.435C359.653 107.901 359.653 113.368 359.653 119C358.595 119 357.537 119 356.446 119C356.446 113.533 356.446 108.067 356.446 102.435Z" fill="black"/>
<path d="M329.105 102.435C330.164 102.435 331.222 102.435 332.312 102.435C332.312 107.901 332.312 113.368 332.312 119C331.254 119 330.196 119 329.105 119C329.105 113.533 329.105 108.067 329.105 102.435Z" fill="black"/>
</g>
<defs>
<clipPath id="clip0_44_1856">
<rect width="481" height="119" fill="white"/>
</clipPath>
</defs>
</svg>
